<svg width="62" height="92" viewBox="0 0 62 92" fill="none" xmlns="http://www.w3.org/2000/svg">
    <path d="M61.5026 31.7273C61.2714 46.0208 39.3709 68.5835 32.4499 75.3623C31.3009 76.4876 29.484 76.4582 28.3721 75.2963C21.674 68.2972 0.514926 45.0377 0.7462 30.7442C0.878133 22.5904 4.20522 14.8222 9.99553 9.14874C15.7858 3.47526 23.5651 0.361168 31.6219 0.49153C39.6787 0.621892 47.3531 3.98603 52.9568 9.84387C58.5606 15.7017 61.6346 23.5734 61.5026 31.7273Z" fill="#44BEC1" fill-opacity="0.02"/>
    <ellipse cx="30.5" cy="75" rx="17.5" ry="17" fill="#44BEC1"/>
    <path d="M47.8 75C47.8 84.273 40.06 91.8 30.5 91.8C20.94 91.8 13.2 84.273 13.2 75C13.2 65.727 20.94 58.2 30.5 58.2C40.06 58.2 47.8 65.727 47.8 75Z" stroke="black" stroke-opacity="0.22" stroke-width="0.4"/>
    <ellipse cx="30.5001" cy="74.9358" rx="13.5" ry="13" fill="white"/>
    <path d="M26.0114 81V69.3636H30.6705C31.5265 69.3636 32.2405 69.4905 32.8125 69.7443C33.3845 69.9981 33.8144 70.3504 34.1023 70.8011C34.3902 71.2481 34.5341 71.7633 34.5341 72.3466C34.5341 72.8011 34.4432 73.2008 34.2614 73.5455C34.0795 73.8864 33.8295 74.1667 33.5114 74.3864C33.197 74.6023 32.8371 74.7557 32.4318 74.8466V74.9602C32.875 74.9792 33.2898 75.1042 33.6761 75.3352C34.0663 75.5663 34.3826 75.8902 34.625 76.3068C34.8674 76.7197 34.9886 77.2121 34.9886 77.7841C34.9886 78.4015 34.8352 78.9527 34.5284 79.4375C34.2254 79.9186 33.7765 80.2992 33.1818 80.5795C32.5871 80.8598 31.8542 81 30.983 81H26.0114ZM28.4716 78.9886H30.4773C31.1629 78.9886 31.6629 78.858 31.9773 78.5966C32.2917 78.3314 32.4489 77.9792 32.4489 77.5398C32.4489 77.2178 32.3712 76.9337 32.2159 76.6875C32.0606 76.4413 31.839 76.2481 31.5511 76.108C31.267 75.9678 30.928 75.8977 30.5341 75.8977H28.4716V78.9886ZM28.4716 74.233H30.2955C30.6326 74.233 30.9318 74.1742 31.1932 74.0568C31.4583 73.9356 31.6667 73.7652 31.8182 73.5455C31.9735 73.3258 32.0511 73.0625 32.0511 72.7557C32.0511 72.3352 31.9015 71.9962 31.6023 71.7386C31.3068 71.4811 30.8864 71.3523 30.3409 71.3523H28.4716V74.233Z" fill="black"/>
</svg>
