<svg width="62" height="92" viewBox="0 0 62 92" fill="none" xmlns="http://www.w3.org/2000/svg">
    <path d="M61.5026 31.7273C61.2714 46.0208 39.3709 68.5835 32.4499 75.3623C31.3009 76.4876 29.484 76.4582 28.3721 75.2963C21.674 68.2972 0.514926 45.0377 0.7462 30.7442C0.878133 22.5904 4.20522 14.8222 9.99553 9.14874C15.7858 3.47526 23.5651 0.361168 31.6219 0.49153C39.6787 0.621892 47.3531 3.98603 52.9568 9.84387C58.5606 15.7017 61.6346 23.5734 61.5026 31.7273Z" fill="#44BEC1" fill-opacity="0.02"/>
    <ellipse cx="30.5" cy="75" rx="17.5" ry="17" fill="#44BEC1"/>
    <path d="M47.8 75C47.8 84.273 40.06 91.8 30.5 91.8C20.94 91.8 13.2 84.273 13.2 75C13.2 65.727 20.94 58.2 30.5 58.2C40.06 58.2 47.8 65.727 47.8 75Z" stroke="black" stroke-opacity="0.22" stroke-width="0.4"/>
    <ellipse cx="30.5001" cy="74.9358" rx="13.5" ry="13" fill="white"/>
    <path d="M35.2784 73.4375H32.7898C32.7443 73.1155 32.6515 72.8295 32.5114 72.5795C32.3712 72.3258 32.1913 72.1098 31.9716 71.9318C31.7519 71.7538 31.4981 71.6174 31.2102 71.5227C30.9261 71.428 30.6174 71.3807 30.2841 71.3807C29.6818 71.3807 29.1572 71.5303 28.7102 71.8295C28.2633 72.125 27.9167 72.5568 27.6705 73.125C27.4242 73.6894 27.3011 74.375 27.3011 75.1818C27.3011 76.0114 27.4242 76.7083 27.6705 77.2727C27.9205 77.8371 28.2689 78.2633 28.7159 78.5511C29.1629 78.839 29.6799 78.983 30.267 78.983C30.5966 78.983 30.9015 78.9394 31.1818 78.8523C31.4659 78.7652 31.7178 78.6383 31.9375 78.4716C32.1572 78.3011 32.339 78.0947 32.483 77.8523C32.6307 77.6098 32.733 77.3333 32.7898 77.0227L35.2784 77.0341C35.214 77.5682 35.053 78.0833 34.7955 78.5795C34.5417 79.072 34.1989 79.5133 33.767 79.9034C33.339 80.2898 32.8277 80.5966 32.233 80.8239C31.642 81.0473 30.9735 81.1591 30.2273 81.1591C29.1894 81.1591 28.2614 80.9242 27.4432 80.4545C26.6288 79.9848 25.9848 79.3049 25.5114 78.4148C25.0417 77.5246 24.8068 76.447 24.8068 75.1818C24.8068 73.9129 25.0455 72.8333 25.5227 71.9432C26 71.053 26.6477 70.375 27.4659 69.9091C28.2841 69.4394 29.2045 69.2045 30.2273 69.2045C30.9015 69.2045 31.5265 69.2992 32.1023 69.4886C32.6818 69.678 33.1951 69.9545 33.642 70.3182C34.089 70.678 34.4527 71.1193 34.733 71.642C35.017 72.1648 35.1989 72.7633 35.2784 73.4375Z" fill="black"/>
</svg>
