<svg width="62" height="92" viewBox="0 0 62 92" fill="none" xmlns="http://www.w3.org/2000/svg">
    <path d="M61.5026 31.7273C61.2714 46.0208 39.3709 68.5835 32.4499 75.3623C31.3009 76.4876 29.484 76.4582 28.3721 75.2963C21.674 68.2972 0.514926 45.0377 0.7462 30.7442C0.878133 22.5904 4.20522 14.8222 9.99553 9.14874C15.7858 3.47526 23.5651 0.361168 31.6219 0.49153C39.6787 0.621892 47.3531 3.98603 52.9568 9.84387C58.5606 15.7017 61.6346 23.5734 61.5026 31.7273Z" fill="#44BEC1" fill-opacity="0.02"/>
    <ellipse cx="30.5" cy="75" rx="17.5" ry="17" fill="#44BEC1"/>
    <path d="M47.8 75C47.8 84.273 40.06 91.8 30.5 91.8C20.94 91.8 13.2 84.273 13.2 75C13.2 65.727 20.94 58.2 30.5 58.2C40.06 58.2 47.8 65.727 47.8 75Z" stroke="black" stroke-opacity="0.22" stroke-width="0.4"/>
    <ellipse cx="30.5001" cy="74.9358" rx="13.5" ry="13" fill="white"/>
    <path d="M26.0114 81V69.3636H33.8523V71.392H28.4716V74.1648H33.4489V76.1932H28.4716V78.9716H33.875V81H26.0114Z" fill="black"/>
</svg>
