<svg width="62" height="92" viewBox="0 0 62 92" fill="none" xmlns="http://www.w3.org/2000/svg">
    <path d="M61.5026 31.7273C61.2714 46.0208 39.3709 68.5835 32.4499 75.3623C31.3009 76.4876 29.484 76.4582 28.3721 75.2963C21.674 68.2972 0.514926 45.0377 0.7462 30.7442C0.878133 22.5904 4.20522 14.8222 9.99553 9.14874C15.7858 3.47526 23.5651 0.361168 31.6219 0.49153C39.6787 0.621892 47.3531 3.98603 52.9568 9.84387C58.5606 15.7017 61.6346 23.5734 61.5026 31.7273Z" fill="#44BEC1" fill-opacity="0.02"/>
    <ellipse cx="30.5" cy="75" rx="17.5" ry="17" fill="#44BEC1"/>
    <path d="M47.8 75C47.8 84.273 40.06 91.8 30.5 91.8C20.94 91.8 13.2 84.273 13.2 75C13.2 65.727 20.94 58.2 30.5 58.2C40.06 58.2 47.8 65.727 47.8 75Z" stroke="black" stroke-opacity="0.22" stroke-width="0.4"/>
    <ellipse cx="30.5001" cy="74.9358" rx="13.5" ry="13" fill="white"/>
    <path d="M32.7273 73.125C32.6477 72.8485 32.536 72.6042 32.392 72.392C32.2481 72.1761 32.072 71.9943 31.8636 71.8466C31.6591 71.6951 31.4242 71.5795 31.1591 71.5C30.8977 71.4205 30.608 71.3807 30.2898 71.3807C29.6951 71.3807 29.1723 71.5284 28.7216 71.8239C28.2746 72.1193 27.9261 72.5492 27.6761 73.1136C27.4261 73.6742 27.3011 74.3598 27.3011 75.1705C27.3011 75.9811 27.4242 76.6705 27.6705 77.2386C27.9167 77.8068 28.2652 78.2405 28.7159 78.5398C29.1667 78.8352 29.6989 78.983 30.3125 78.983C30.8693 78.983 31.3447 78.8845 31.7386 78.6875C32.1364 78.4867 32.4394 78.2045 32.6477 77.8409C32.8598 77.4773 32.9659 77.0473 32.9659 76.5511L33.4659 76.625H30.4659V74.7727H35.3352V76.2386C35.3352 77.2614 35.1193 78.1402 34.6875 78.875C34.2557 79.6061 33.661 80.1705 32.9034 80.5682C32.1458 80.9621 31.2784 81.1591 30.3011 81.1591C29.2102 81.1591 28.2519 80.9186 27.4261 80.4375C26.6004 79.9527 25.9564 79.2652 25.4943 78.375C25.036 77.4811 24.8068 76.4205 24.8068 75.1932C24.8068 74.25 24.9432 73.4091 25.2159 72.6705C25.4924 71.928 25.8788 71.2992 26.375 70.7841C26.8712 70.2689 27.4489 69.8769 28.108 69.608C28.767 69.339 29.4811 69.2045 30.25 69.2045C30.9091 69.2045 31.5227 69.3011 32.0909 69.4943C32.6591 69.6837 33.1629 69.9527 33.6023 70.3011C34.0455 70.6496 34.4072 71.0644 34.6875 71.5455C34.9678 72.0227 35.1477 72.5492 35.2273 73.125H32.7273Z" fill="black"/>
</svg>
