<svg width="40" height="40" viewBox="0 0 40 40" fill="none" xmlns="http://www.w3.org/2000/svg">
    <path fill-rule="evenodd" clip-rule="evenodd" d="M27.7622 18.1072L32.766 18.8663C33.7654 19.0128 34.5045 19.8726 34.4995 20.8827V22.8863C34.4982 24.0121 33.5859 24.9245 32.4601 24.9257H31.7003C31.3855 26.2539 30.1995 27.1917 28.8346 27.1917C27.4696 27.1917 26.2836 26.2539 25.9688 24.9257H15.3853C15.0705 26.2539 13.8845 27.1917 12.5196 27.1917C11.1546 27.1917 9.96858 26.2539 9.65384 24.9257H8.44081C7.06484 24.9242 5.94977 23.8091 5.94824 22.4332V20.1672C5.94949 19.0414 6.86182 18.1291 7.98762 18.1278H9.92684L12.8039 14.5314C13.2758 13.9386 13.9927 13.594 14.7504 13.5959H21.3869C21.9644 13.5965 22.5238 13.7971 22.9702 14.1635L27.7622 18.1072ZM25.6479 18.1278L22.1066 15.2135C21.9037 15.047 21.6494 14.9558 21.3869 14.9554H19.0909V18.1278H25.6479ZM13.8657 15.3803C14.0802 15.111 14.4061 14.9545 14.7504 14.9554H15.0121V18.1278H11.668L13.8657 15.3803ZM10.9334 24.2459C10.9334 25.122 11.6435 25.8321 12.5196 25.8321C13.3952 25.8311 14.1047 25.1215 14.1057 24.2459C14.1057 23.3699 13.3956 22.6597 12.5196 22.6597C11.6435 22.6597 10.9334 23.3699 10.9334 24.2459ZM28.8346 25.8321C27.9585 25.8321 27.2484 25.122 27.2484 24.2459C27.2484 23.3699 27.9585 22.6597 28.8346 22.6597C29.7106 22.6597 30.4207 23.3699 30.4207 24.2459C30.4197 25.1215 29.7102 25.8311 28.8346 25.8321ZM32.4601 23.5661C32.8354 23.5657 33.1395 23.2616 33.1399 22.8863V20.8827C33.138 20.5473 32.8934 20.2627 32.5621 20.2105L27.797 19.4874H18.4111C18.0356 19.4874 17.7313 19.183 17.7313 18.8076V14.9554H16.3717V18.8076C16.3717 19.183 16.0674 19.4874 15.6919 19.4874H7.98761C7.61234 19.4878 7.30823 19.7919 7.30782 20.1672V22.4332C7.30854 23.0586 7.81537 23.5654 8.44081 23.5661H9.65384C9.96857 22.238 11.1546 21.3002 12.5196 21.3002C13.8845 21.3002 15.0705 22.238 15.3853 23.5661H25.9688C26.2836 22.238 27.4696 21.3002 28.8345 21.3002C30.1995 21.3002 31.3855 22.238 31.7003 23.5661H32.4601ZM12.5196 24.9257C12.895 24.9257 13.1994 24.6214 13.1994 24.2459C13.1994 23.8705 12.895 23.5661 12.5196 23.5661C12.1441 23.5661 11.8398 23.8705 11.8398 24.2459C11.8398 24.6214 12.1441 24.9257 12.5196 24.9257ZM28.8346 24.9257C29.21 24.9257 29.5143 24.6214 29.5143 24.2459C29.5143 23.8705 29.21 23.5661 28.8346 23.5661C28.4591 23.5661 28.1548 23.8705 28.1548 24.2459C28.1548 24.6214 28.4591 24.9257 28.8346 24.9257ZM18.4111 19.9406H19.3175C19.6929 19.9406 19.9973 20.2449 19.9973 20.6204C19.9973 20.9958 19.6929 21.3002 19.3175 21.3002H18.4111C18.0356 21.3002 17.7313 20.9958 17.7313 20.6204C17.7313 20.2449 18.0356 19.9406 18.4111 19.9406Z" fill="#FF7D45"/>
</svg>
