<svg width="94" height="139" viewBox="0 0 94 139" fill="none" xmlns="http://www.w3.org/2000/svg">
<ellipse opacity="0.15" cx="45.7545" cy="113.065" rx="42.4423" ry="24.7809" transform="rotate(0.926985 45.7545 113.065)" fill="#252B5C"/>
<ellipse opacity="0.5" cx="45.7545" cy="113.065" rx="19.5887" ry="11.5644" transform="rotate(0.926985 45.7545 113.065)" fill="#44BEC1"/>
<path d="M92.5247 47.7306C92.1955 68.0779 62.6773 99.5641 50.6834 111.531C47.9235 114.284 43.5472 114.213 40.8779 111.372C29.2774 99.0237 0.793323 66.599 1.12255 46.2517C1.32103 33.985 6.3263 22.2986 15.0373 13.7634C23.7482 5.22819 35.4513 0.543343 47.572 0.739459C59.6927 0.935576 71.2381 5.99659 79.6683 14.8091C88.0986 23.6217 92.7232 35.4639 92.5247 47.7306Z" fill="#44BEC1"/>
<path opacity="0.25" d="M46.2236 84.0767C56.2053 84.2382 65.8424 80.4279 73.0147 73.4839C80.1871 66.54 84.3072 57.0312 84.4687 47.0495C84.6302 37.0677 80.8199 27.4307 73.8759 20.2583C66.932 13.086 57.4232 8.96585 47.4415 8.80434C37.4598 8.64283 27.8227 12.4532 20.6504 19.3971C13.478 26.3411 9.35787 35.8498 9.19636 45.8316C9.03485 55.8133 12.8452 65.4503 19.7891 72.6227C26.7331 79.7951 36.2418 83.9152 46.2236 84.0767V84.0767Z" fill="white"/>
<path d="M82.4963 46.057C82.4963 66.4333 66.5102 82.8424 46.9229 82.8424C27.3356 82.8424 11.3494 66.4333 11.3494 46.057C11.3494 25.6806 27.3356 9.27148 46.9229 9.27148C66.5102 9.27148 82.4963 25.6806 82.4963 46.057Z" fill="#E5E5E5" stroke="white" stroke-width="4"/>
</svg>
