<svg width="62" height="89" viewBox="0 0 62 89" fill="none" xmlns="http://www.w3.org/2000/svg">
    <path d="M61.5026 31.7273C61.2714 46.0208 39.3709 68.5835 32.4499 75.3623C31.3009 76.4876 29.484 76.4582 28.3721 75.2963C21.674 68.2972 0.514926 45.0377 0.7462 30.7442C0.878133 22.5904 4.20522 14.8222 9.99553 9.14874C15.7858 3.47526 23.5651 0.361168 31.6219 0.49153C39.6787 0.621892 47.3531 3.98603 52.9568 9.84387C58.5606 15.7017 61.6346 23.5734 61.5026 31.7273Z" fill="#44BEC1" fill-opacity="0.02"/>
    <ellipse cx="31.0793" cy="71.0098" rx="18.4698" ry="17.9421" fill="#ACACAC"/>
    <path d="M49.3491 71.0099C49.3491 80.8031 41.175 88.752 31.0793 88.752C20.9837 88.752 12.8095 80.8031 12.8095 71.0099C12.8095 61.2166 20.9837 53.2677 31.0793 53.2677C41.175 53.2677 49.3491 61.2166 49.3491 71.0099Z" stroke="black" stroke-opacity="0.22" stroke-width="0.4"/>
    <ellipse cx="31.0793" cy="70.9421" rx="14.2481" ry="13.7204" fill="white"/>
</svg>
