<svg width="65" height="94" viewBox="0 0 65 94" fill="none" xmlns="http://www.w3.org/2000/svg">
    <path d="M61.5026 31.7273C61.2714 46.0208 39.3709 68.5835 32.4499 75.3623C31.3009 76.4876 29.484 76.4582 28.3721 75.2963C21.674 68.2972 0.514926 45.0377 0.7462 30.7442C0.878133 22.5904 4.20522 14.8222 9.99553 9.14874C15.7858 3.47526 23.5651 0.361168 31.6219 0.49153C39.6787 0.621892 47.3531 3.98603 52.9568 9.84387C58.5606 15.7017 61.6346 23.5734 61.5026 31.7273Z" fill="#44BEC1" fill-opacity="0.02"/>
    <ellipse cx="46.0793" cy="76.0098" rx="18.4698" ry="17.9421" fill="#ACACAC"/>
    <path d="M64.3491 76.0099C64.3491 85.8031 56.175 93.752 46.0793 93.752C35.9837 93.752 27.8095 85.8031 27.8095 76.0099C27.8095 66.2166 35.9837 58.2677 46.0793 58.2677C56.175 58.2677 64.3491 66.2166 64.3491 76.0099Z" stroke="black" stroke-opacity="0.22" stroke-width="0.4"/>
    <ellipse cx="46.0793" cy="75.9421" rx="14.2481" ry="13.7204" fill="white"/>
</svg>
