<svg width="11" height="11" viewBox="0 0 11 11" fill="none" xmlns="http://www.w3.org/2000/svg">
    <path d="M4.02069 5.12898C4.16969 5.12898 4.31723 5.09801 4.45489 5.03784C4.59254 4.97766 4.71762 4.88946 4.82298 4.77828C4.92834 4.66709 5.01192 4.5351 5.06894 4.38982C5.12596 4.24455 5.1553 4.08885 5.1553 3.93161C5.1553 3.77437 5.12596 3.61867 5.06894 3.4734C5.01192 3.32813 4.92834 3.19613 4.82298 3.08494C4.71762 2.97376 4.59254 2.88556 4.45489 2.82539C4.31723 2.76521 4.16969 2.73424 4.02069 2.73424C3.71977 2.73424 3.43118 2.86039 3.21839 3.08494C3.00561 3.30949 2.88607 3.61405 2.88607 3.93161C2.88607 4.08885 2.91542 4.24455 2.97244 4.38982C3.02946 4.5351 3.11304 4.66709 3.21839 4.77828C3.43118 5.00283 3.71977 5.12898 4.02069 5.12898ZM4.02069 0.578979C5.77253 0.578979 7.19761 2.07808 7.19761 3.93161C7.19761 6.44608 4.02069 10.1579 4.02069 10.1579C4.02069 10.1579 0.843765 6.44608 0.843765 3.93161C0.843765 3.04244 1.17848 2.18968 1.77426 1.56094C2.37005 0.932202 3.17812 0.578979 4.02069 0.578979ZM6.74377 7.76319H8.1053V6.32635H9.013V7.76319H10.3745V8.72108H9.013V10.1579H8.1053V8.72108H6.74377V7.76319Z" fill="black"/>
</svg>
