<svg width="62" height="92" viewBox="0 0 62 92" fill="none" xmlns="http://www.w3.org/2000/svg">
    <ellipse opacity="0.15" cx="30.4138" cy="75.2204" rx="28.212" ry="16.4723" transform="rotate(0.926985 30.4138 75.2204)" fill="#252B5C"/>
    <ellipse opacity="0.5" cx="30.4138" cy="75.2203" rx="13.0209" ry="7.68707" transform="rotate(0.926985 30.4138 75.2203)" fill="#44BEC1"/>
    <path d="M61.5025 31.7916C61.2712 46.085 39.3707 68.6478 32.4497 75.4266C31.3008 76.5519 29.4839 76.5225 28.372 75.3606C21.6739 68.3614 0.514804 45.102 0.746078 30.8085C0.87801 22.6546 4.20509 14.8865 9.99541 9.21301C15.7857 3.53953 23.5649 0.425438 31.6218 0.5558C39.6786 0.686162 47.353 4.0503 52.9567 9.90814C58.5604 15.766 61.6345 23.6377 61.5025 31.7916Z" fill="#44BEC1"/>
    <ellipse cx="31.5" cy="32" rx="13.5" ry="13" fill="white"/>
</svg>
