<svg width="62" height="92" viewBox="0 0 62 92" fill="none" xmlns="http://www.w3.org/2000/svg">
    <path opacity="0.15" d="M58.4832 75.3797C58.4112 79.8273 55.2565 83.8407 50.1347 86.7211C45.0177 89.5988 37.972 91.3223 30.2116 91.1967C22.4511 91.0711 15.4648 89.1206 10.4437 86.0789C5.4177 83.0342 2.39448 78.9209 2.46644 74.4734C2.5384 70.0258 5.69312 66.0124 10.815 63.132C15.9319 60.2543 22.9776 58.5308 30.7381 58.6564C38.4985 58.782 45.4848 60.7325 50.5059 63.7742C55.5319 66.8188 58.5552 70.9322 58.4832 75.3797Z" fill="#252B5C" stroke="black" stroke-width="0.4"/>
    <ellipse opacity="0.5" cx="30.4138" cy="75.2203" rx="13.0209" ry="7.68707" transform="rotate(0.926985 30.4138 75.2203)" fill="#44BEC1"/>
    <path d="M61.5025 31.7916C61.2712 46.085 39.3707 68.6478 32.4497 75.4266C31.3008 76.5519 29.4839 76.5225 28.372 75.3606C21.6739 68.3614 0.514804 45.102 0.746078 30.8085C0.87801 22.6546 4.20509 14.8865 9.99541 9.21301C15.7857 3.53953 23.5649 0.425438 31.6218 0.5558C39.6786 0.686162 47.353 4.0503 52.9567 9.90814C58.5604 15.766 61.6345 23.6377 61.5025 31.7916Z" fill="#44BEC1" stroke="black" stroke-opacity="0.22" stroke-width="0.4"/>
    <ellipse cx="31.5" cy="32" rx="13.5" ry="13" fill="white"/>
</svg>
