<svg width="39" height="57" viewBox="0 0 39 57" fill="none" xmlns="http://www.w3.org/2000/svg">
    <path opacity="0.15" d="M36.1812 46.9222C36.1371 49.6442 34.2055 52.1148 31.0387 53.8958C27.8768 55.674 23.5179 56.7414 18.7127 56.6637C13.9076 56.5859 9.58556 55.3781 6.48281 53.4985C3.37522 51.616 1.5246 49.0842 1.56865 46.3622C1.61269 43.6402 3.54425 41.1696 6.71111 39.3886C9.87304 37.6104 14.2319 36.543 19.0371 36.6207C23.8422 36.6985 28.1642 37.9063 31.267 39.7859C34.3746 41.6684 36.2252 44.2002 36.1812 46.9222Z" fill="#252B5C" stroke="black" stroke-width="0.4"/>
    <ellipse opacity="0.5" cx="18.8749" cy="46.6422" rx="8.08086" ry="4.77063" transform="rotate(0.926985 18.8749 46.6422)" fill="#252B5C"/>
    <path d="M38.1687 19.6901C38.0329 28.0839 25.8559 41.0728 20.9081 46.0092C19.7696 47.1451 17.9643 47.1159 16.8631 45.9438C12.0776 40.8498 0.327193 27.4738 0.463007 19.08C0.544885 14.0197 2.60969 9.19874 6.20318 5.67775C9.79668 2.15676 14.6245 0.224143 19.6246 0.305046C24.6247 0.385949 29.3875 2.47375 32.8652 6.10915C36.3429 9.74455 38.2506 14.6298 38.1687 19.6901Z" fill="url(#paint0_linear_0_1)" stroke="black" stroke-opacity="0.22" stroke-width="0.4"/>
    <ellipse cx="19" cy="19.5" rx="12" ry="11.5" fill="white"/>
    <defs>
        <linearGradient id="paint0_linear_0_1" x1="19.6246" y1="0.305046" x2="18.8528" y2="48.0051" gradientUnits="userSpaceOnUse">
            <stop stop-color="#CCCCCC"/>
            <stop offset="1" stop-color="#CCCCCC"/>
        </linearGradient>
    </defs>
</svg>
