<svg width="41" height="42" viewBox="0 0 41 42" fill="none" xmlns="http://www.w3.org/2000/svg">
    <path d="M26.4624 19.6344L27.464 20.9639C28.0877 20.6271 28.8006 20.4349 29.5578 20.4349C31.9966 20.4349 33.9808 22.4192 33.9808 24.8579C33.9808 27.2971 31.9966 29.2814 29.5579 29.2814C27.1186 29.2814 25.1344 27.2971 25.1344 24.8579C25.1344 23.6581 25.6152 22.5688 26.3933 21.7714L25.4312 20.4942C24.2659 21.6367 23.384 23.2304 23.7196 25.3693C23.7496 25.5629 23.6941 25.7603 23.5665 25.9095C23.4394 26.0583 23.2527 26.144 23.057 26.144H17.978C17.781 26.144 17.5936 26.0577 17.4664 25.9069C17.3391 25.7565 17.2838 25.5582 17.3166 25.3637C17.3418 25.2055 17.6987 22.7477 15.9779 20.6341L14.8485 21.9626C15.5224 22.7389 15.931 23.7516 15.931 24.858C15.931 27.2972 13.9467 29.2814 11.5075 29.2814C9.06824 29.2814 7.08398 27.2972 7.08398 24.858C7.08398 22.4192 9.06824 20.4349 11.5075 20.4349C12.3576 20.4349 13.152 20.677 13.8268 21.0944L15.0219 19.6884C14.0222 18.8848 12.5998 18.2042 10.5785 17.8379C10.3272 17.792 10.1234 17.6075 10.0533 17.3613C9.98321 17.115 10.0599 16.8503 10.2498 16.6795C10.3661 16.5749 11.3169 15.7869 13.5423 15.7869C14.9679 15.7869 16.5871 16.1052 18.3806 16.7317C19.1564 16.0193 21.2108 14.5867 24.3835 15.5842C24.4476 15.4148 24.4911 15.2474 24.5094 15.0845C24.5583 14.6525 24.4246 14.2709 24.0892 13.9109C23.8996 13.7062 23.8554 13.4054 23.9799 13.1551M26.4624 19.6344L29.7564 17.2278C27.8149 13.1622 24.7967 12.8016 24.6484 12.7866C24.3646 12.7585 24.1035 12.9059 23.9799 13.1551M26.4624 19.6344C27.8423 18.6483 29.234 18.1942 29.3531 18.1565C29.5383 18.0976 29.689 17.9614 29.7662 17.7839C29.8434 17.6061 29.8402 17.403 29.7564 17.2278L26.4624 19.6344ZM23.9799 13.1551C23.9799 13.1552 23.98 13.155 23.9799 13.1551ZM25.8422 15.2361C25.7116 16.3895 24.8903 17.4749 24.1035 18.2736C23.3131 19.076 22.5393 19.6073 22.4739 19.6515C22.2692 19.7916 22.0055 19.8051 21.7884 19.692C17.7045 17.5691 15.0454 17.128 13.5423 17.128C13.4021 17.128 13.2688 17.1317 13.1421 17.1386C15.6343 18.055 17.0256 19.5248 17.7914 20.9875C18.5682 22.4715 18.6976 23.9407 18.6906 24.8029H22.3144C22.2003 22.4924 23.2659 20.7532 24.5691 19.5053C25.8378 18.2902 27.3369 17.5355 28.2101 17.1624C27.4392 15.8155 26.5568 15.0614 25.8481 14.6413C25.8671 14.835 25.8653 15.0337 25.8422 15.2361ZM10.5968 17.7369C12.6335 18.106 14.0732 18.7933 15.0885 19.61L10.5968 17.7369ZM13.9658 23.0011C14.3574 23.5179 14.5898 24.1611 14.5898 24.858C14.5898 26.5576 13.2072 27.9403 11.5075 27.9403C9.80779 27.9403 8.42506 26.5576 8.42506 24.858C8.42506 23.1588 9.80778 21.7761 11.5075 21.7761C12.0261 21.7761 12.5148 21.9054 12.9441 22.1327L10.9966 24.4237L10.9301 24.502L11.0084 24.5684L11.8736 25.3038L11.9518 25.3703L12.0183 25.292L13.9658 23.0011ZM30.0936 24.4545L28.2841 22.0526C28.6727 21.8754 29.1038 21.7761 29.5579 21.7761C31.257 21.7761 32.6397 23.1588 32.6397 24.858C32.6397 26.5576 31.257 27.9403 29.5578 27.9403C27.8582 27.9403 26.4755 26.5576 26.4755 24.858C26.4755 24.0964 26.7536 23.3987 27.2134 22.8601L29.0222 25.2613L29.084 25.3433L29.166 25.2816L30.0733 24.5983L30.1553 24.5366L30.0936 24.4545ZM19.8275 17.2878C20.5642 16.8059 21.8446 16.2988 23.6563 16.7701C23.1395 17.4017 22.4973 17.9609 22.0373 18.3123C21.2767 17.927 20.5398 17.5855 19.8275 17.2878Z" fill="#6D5E0F"/>
    <path d="M26.4624 19.6344L27.464 20.9639C28.0877 20.6271 28.8006 20.4349 29.5578 20.4349C31.9966 20.4349 33.9808 22.4192 33.9808 24.8579C33.9808 27.2971 31.9966 29.2814 29.5579 29.2814C27.1186 29.2814 25.1344 27.2971 25.1344 24.8579C25.1344 23.6581 25.6152 22.5688 26.3933 21.7714L25.4312 20.4942C24.2659 21.6367 23.384 23.2304 23.7196 25.3693C23.7496 25.5629 23.6941 25.7603 23.5665 25.9095C23.4394 26.0583 23.2527 26.144 23.057 26.144H17.978C17.781 26.144 17.5936 26.0577 17.4664 25.9069C17.3391 25.7565 17.2838 25.5582 17.3166 25.3637C17.3418 25.2055 17.6987 22.7477 15.9779 20.6341L14.8485 21.9626C15.5224 22.7389 15.931 23.7516 15.931 24.858C15.931 27.2972 13.9467 29.2814 11.5075 29.2814C9.06824 29.2814 7.08398 27.2972 7.08398 24.858C7.08398 22.4192 9.06824 20.4349 11.5075 20.4349C12.3576 20.4349 13.152 20.677 13.8268 21.0944L15.0219 19.6884C14.0222 18.8848 12.5998 18.2042 10.5785 17.8379C10.3272 17.792 10.1234 17.6075 10.0533 17.3613C9.98321 17.115 10.0599 16.8503 10.2498 16.6795C10.3661 16.5749 11.3169 15.7869 13.5423 15.7869C14.9679 15.7869 16.5871 16.1052 18.3806 16.7317C19.1564 16.0193 21.2108 14.5867 24.3835 15.5842C24.4476 15.4148 24.4911 15.2474 24.5094 15.0845C24.5583 14.6525 24.4246 14.2709 24.0892 13.9109C23.8996 13.7062 23.8554 13.4054 23.9799 13.1551M26.4624 19.6344L29.7564 17.2278M26.4624 19.6344C27.8423 18.6483 29.234 18.1942 29.3531 18.1565C29.5383 18.0976 29.689 17.9614 29.7662 17.7839C29.8434 17.6061 29.8402 17.403 29.7564 17.2278M23.9799 13.1551C24.1035 12.9059 24.3646 12.7585 24.6484 12.7866C24.7967 12.8016 27.8149 13.1622 29.7564 17.2278M23.9799 13.1551L24.0716 13.2008M23.9799 13.1551C23.98 13.155 23.9799 13.1552 23.9799 13.1551ZM25.8422 15.2361C25.7116 16.3895 24.8903 17.4749 24.1035 18.2736C23.3131 19.076 22.5393 19.6073 22.4739 19.6515C22.2692 19.7916 22.0055 19.8051 21.7884 19.692C17.7045 17.5691 15.0454 17.128 13.5423 17.128C13.4021 17.128 13.2688 17.1317 13.1421 17.1386C15.6343 18.055 17.0256 19.5248 17.7914 20.9875C18.5682 22.4715 18.6976 23.9407 18.6906 24.8029H22.3144C22.2003 22.4924 23.2659 20.7532 24.5691 19.5053C25.8378 18.2902 27.3369 17.5355 28.2101 17.1624C27.4392 15.8155 26.5568 15.0614 25.8481 14.6413C25.8671 14.835 25.8653 15.0337 25.8422 15.2361ZM25.8422 15.2361L25.7401 15.2246M10.5968 17.7369C12.6335 18.106 14.0732 18.7933 15.0885 19.61L10.5968 17.7369ZM13.9658 23.0011C14.3574 23.5179 14.5898 24.1611 14.5898 24.858C14.5898 26.5576 13.2072 27.9403 11.5075 27.9403C9.80779 27.9403 8.42506 26.5576 8.42506 24.858C8.42506 23.1588 9.80778 21.7761 11.5075 21.7761C12.0261 21.7761 12.5148 21.9054 12.9441 22.1327L10.9966 24.4237L10.9301 24.502L11.0084 24.5684L11.8736 25.3038L11.9518 25.3703L12.0183 25.292L13.9658 23.0011ZM30.0936 24.4545L28.2841 22.0526C28.6727 21.8754 29.1038 21.7761 29.5579 21.7761C31.257 21.7761 32.6397 23.1588 32.6397 24.858C32.6397 26.5576 31.257 27.9403 29.5578 27.9403C27.8582 27.9403 26.4755 26.5576 26.4755 24.858C26.4755 24.0964 26.7536 23.3987 27.2134 22.8601L29.0222 25.2613L29.084 25.3433L29.166 25.2816L30.0733 24.5983L30.1553 24.5366L30.0936 24.4545ZM19.8275 17.2878C20.5642 16.8059 21.8446 16.2988 23.6563 16.7701C23.1395 17.4017 22.4973 17.9609 22.0373 18.3123C21.2767 17.927 20.5398 17.5855 19.8275 17.2878Z" stroke="#6D5E0F" stroke-width="0.2"/>
    <path d="M30.5319 0.500366H10.4681C4.68673 0.500366 0 5.18709 0 10.9685V31.0323C0 36.8136 4.68673 41.5004 10.4681 41.5004H30.5319C36.3133 41.5004 41 36.8136 41 31.0323V10.9685C41 5.18709 36.3133 0.500366 30.5319 0.500366Z" fill="#E8D27C" fill-opacity="0.42"/>
    <circle cx="11.5434" cy="24.9439" r="3.01752" fill="#EFE6C2"/>
    <circle cx="29.6484" cy="24.9439" r="3.01752" fill="#EFE6C2"/>
    <path d="M28.8289 17.07L26.5794 17.7109L27.3224 15.2808L28.8289 17.07Z" fill="#EFE6C2"/>
    <path d="M28.0101 15.4765L27.0007 18.2203L25.378 14.204L28.0101 15.4765Z" fill="#EFE6C2"/>
    <ellipse cx="27.9707" cy="16.042" rx="0.442766" ry="2.27153" transform="rotate(-44 27.9707 16.042)" fill="#A18F3D"/>
    <ellipse cx="27.2217" cy="15.8762" rx="0.399143" ry="1.7243" transform="rotate(-44 27.2217 15.8762)" fill="#EFE6C2"/>
    <ellipse cx="21.9962" cy="17.6214" rx="1.12463" ry="2.44834" transform="rotate(-97 21.9962 17.6214)" fill="#EFE6C2"/>
    <rect x="19.2539" y="17.306" width="3.63999" height="0.909995" transform="rotate(24 19.2539 17.306)" fill="#A18F3D"/>
    <rect x="21.9346" y="19.043" width="3.63999" height="0.909995" transform="rotate(-46 21.9346 19.043)" fill="#A18F3D"/>
    <rect x="26.0381" y="17.9833" width="3.63999" height="0.909995" transform="rotate(-21 26.0381 17.9833)" fill="#A18F3D"/>
    <rect x="27.1655" y="18.6136" width="3.63999" height="0.271554" transform="rotate(-124 27.1655 18.6136)" fill="#A18F3D"/>
</svg>
