<svg width="40" height="40" viewBox="0 0 40 40" fill="none" xmlns="http://www.w3.org/2000/svg">
    <path d="M25.7764 18.6383L26.752 19.9334C27.3596 19.6053 28.054 19.4181 28.7916 19.4181C31.1672 19.4181 33.1 21.351 33.1 23.7265C33.1 26.1025 31.1672 28.0354 28.7917 28.0354C26.4156 28.0354 24.4828 26.1025 24.4828 23.7265C24.4828 22.5578 24.9511 21.4967 25.7091 20.72L24.7719 19.4759C23.6368 20.5888 22.7777 22.1412 23.1046 24.2247L23.1047 24.2249C23.134 24.4134 23.0798 24.6055 22.9555 24.7509C22.8317 24.8958 22.6498 24.9793 22.4592 24.9793H17.5118C17.3199 24.9793 17.1373 24.8952 17.0134 24.7483C16.8894 24.6018 16.8356 24.4087 16.8675 24.2192C16.8921 24.0651 17.2397 21.671 15.5635 19.6121L14.4634 20.9062C15.1198 21.6624 15.5178 22.6489 15.5178 23.7266C15.5178 26.1026 13.5849 28.0354 11.2089 28.0354C8.83285 28.0354 6.9 26.1026 6.9 23.7266C6.9 21.351 8.83285 19.4181 11.2089 19.4181C12.037 19.4181 12.8108 19.6539 13.4681 20.0605L14.6323 18.6909C13.6585 17.9081 12.2729 17.2452 10.304 16.8884L10.3038 16.8884C10.059 16.8437 9.86064 16.6639 9.79237 16.4241L9.79236 16.4241C9.72411 16.1842 9.79881 15.9264 9.98376 15.76L9.98377 15.76C10.0971 15.6581 11.0233 14.8905 13.191 14.8905C14.5797 14.8905 16.1569 15.2006 17.904 15.8108C18.6597 15.1169 20.6608 13.7214 23.7513 14.6931C23.8138 14.528 23.8561 14.365 23.874 14.2063L23.874 14.2062C23.9216 13.7854 23.7914 13.4138 23.4647 13.0631L23.4645 13.0629C23.2798 12.8635 23.2369 12.5707 23.3582 12.3269M25.7764 18.6383L28.985 16.2941C27.0938 12.3338 24.1538 11.9825 24.0094 11.9679L24.0091 11.9678C23.7326 11.9405 23.4786 12.0841 23.3582 12.3269M25.7764 18.6383C27.1205 17.6778 28.4762 17.2354 28.5922 17.1987L28.5923 17.1987C28.7727 17.1413 28.9194 17.0087 28.9946 16.8358L28.9946 16.8357C29.0698 16.6625 29.0667 16.4648 28.985 16.2942L25.7764 18.6383ZM23.3582 12.3269L23.4475 12.3714L23.3581 12.3271C23.3582 12.327 23.3582 12.327 23.3582 12.3269ZM25.1722 14.354C25.045 15.4775 24.245 16.5348 23.4786 17.3128C22.7087 18.0944 21.9549 18.6119 21.8912 18.655C21.6918 18.7915 21.4349 18.8046 21.2235 18.6944C17.2454 16.6265 14.6552 16.1969 13.191 16.1969C13.0544 16.1969 12.9246 16.2005 12.8012 16.2072C15.2288 17.0998 16.5841 18.5316 17.33 19.9564C18.0867 21.4019 18.2127 22.8331 18.2059 23.6729H21.7358C21.6247 21.4223 22.6627 19.7281 23.9321 18.5126C25.168 17.329 26.6282 16.5938 27.4788 16.2304C26.7279 14.9184 25.8683 14.1838 25.178 13.7746C25.1965 13.9633 25.1947 14.1568 25.1722 14.354ZM25.1722 14.354C25.1721 14.354 25.1721 14.3541 25.1721 14.3541L25.0728 14.3428L25.1722 14.354ZM10.3218 16.79C12.3057 17.1495 13.7081 17.819 14.6971 18.6146L10.3218 16.79ZM13.6035 21.9178C13.985 22.4212 14.2114 23.0478 14.2114 23.7266C14.2114 25.3822 12.8646 26.729 11.2089 26.729C9.55324 26.729 8.20633 25.3822 8.20633 23.7266C8.20633 22.0714 9.55323 20.7245 11.2089 20.7245C11.7141 20.7245 12.1901 20.8505 12.6083 21.0719L10.7113 23.3036L10.6465 23.3798L10.7227 23.4445L11.5655 24.1609L11.6417 24.2256L11.7065 24.1494L13.6035 21.9178ZM29.3135 23.3336L27.5509 20.9939C27.9294 20.8213 28.3493 20.7245 28.7917 20.7245C30.4468 20.7245 31.7936 22.0714 31.7936 23.7266C31.7936 25.3822 30.4468 26.729 28.7916 26.729C27.136 26.729 25.7891 25.3822 25.7891 23.7266C25.7891 22.9847 26.06 22.3051 26.5079 21.7805L28.2699 24.1195L28.3301 24.1993L28.4099 24.1392L29.2937 23.4736L29.3736 23.4135L29.3135 23.3336ZM19.3134 16.3525C20.031 15.8831 21.2782 15.3891 23.043 15.8482C22.5396 16.4635 21.914 17.0082 21.4659 17.3505C20.725 16.9752 20.0072 16.6425 19.3134 16.3525Z" fill="#6D5E0F" stroke="#6D5E0F" stroke-width="0.2"/>
    <rect width="39.9378" height="39.9378" rx="10.1969" fill="#E8D27C" fill-opacity="0.42"/>
</svg>
