<svg width="23" height="23" viewBox="0 0 23 23" fill="none" xmlns="http://www.w3.org/2000/svg">
    <path d="M11.5 23C9.90917 23 8.41417 22.6981 7.015 22.0944C5.61583 21.4906 4.39875 20.6713 3.36375 19.6362C2.32875 18.6012 1.50937 17.3842 0.905625 15.985C0.301875 14.5858 0 13.0908 0 11.5C0 9.90917 0.301875 8.41417 0.905625 7.015C1.50937 5.61583 2.32875 4.39875 3.36375 3.36375C4.39875 2.32875 5.61583 1.50937 7.015 0.905625C8.41417 0.301875 9.90917 0 11.5 0C13.0908 0 14.5858 0.301875 15.985 0.905625C17.3842 1.50937 18.6012 2.32875 19.6362 3.36375C20.6713 4.39875 21.4906 5.61583 22.0944 7.015C22.6981 8.41417 23 9.90917 23 11.5C23 13.0908 22.6981 14.5858 22.0944 15.985C21.4906 17.3842 20.6713 18.6012 19.6362 19.6362C18.6012 20.6713 17.3842 21.4906 15.985 22.0944C14.5858 22.6981 13.0908 23 11.5 23ZM11.5 20.7C12.5733 20.7 13.5844 20.5323 14.5331 20.1969C15.4819 19.8615 16.3492 19.3871 17.135 18.7738L15.4963 17.135C14.9404 17.5375 14.3223 17.849 13.6419 18.0694C12.9615 18.2898 12.2475 18.4 11.5 18.4C9.58333 18.4 7.95417 17.7292 6.6125 16.3875C5.27083 15.0458 4.6 13.4167 4.6 11.5C4.6 9.58333 5.27083 7.95417 6.6125 6.6125C7.95417 5.27083 9.58333 4.6 11.5 4.6C13.4167 4.6 15.0458 5.27083 16.3875 6.6125C17.7292 7.95417 18.4 9.58333 18.4 11.5C18.4 12.2475 18.285 12.9663 18.055 13.6562C17.825 14.3463 17.5088 14.9692 17.1063 15.525L18.745 17.1637C19.3583 16.3779 19.8375 15.5058 20.1825 14.5475C20.5275 13.5892 20.7 12.5733 20.7 11.5C20.7 8.93167 19.8088 6.75625 18.0263 4.97375C16.2437 3.19125 14.0683 2.3 11.5 2.3C8.93167 2.3 6.75625 3.19125 4.97375 4.97375C3.19125 6.75625 2.3 8.93167 2.3 11.5C2.3 14.0683 3.19125 16.2437 4.97375 18.0263C6.75625 19.8088 8.93167 20.7 11.5 20.7ZM11.5 16.1C11.9217 16.1 12.329 16.0473 12.7219 15.9419C13.1148 15.8365 13.4838 15.6783 13.8288 15.4675L12.075 13.7137C11.9792 13.7521 11.8833 13.776 11.7875 13.7856C11.6917 13.7952 11.5958 13.8 11.5 13.8C10.8675 13.8 10.326 13.5748 9.87563 13.1244C9.42521 12.674 9.2 12.1325 9.2 11.5C9.2 10.8675 9.42521 10.326 9.87563 9.87563C10.326 9.42521 10.8675 9.2 11.5 9.2C12.1325 9.2 12.674 9.42521 13.1244 9.87563C13.5748 10.326 13.8 10.8675 13.8 11.5C13.8 11.615 13.7952 11.7252 13.7856 11.8306C13.776 11.936 13.7521 12.0367 13.7137 12.1325L15.4388 13.8575C15.6496 13.5125 15.8125 13.1435 15.9275 12.7506C16.0425 12.3577 16.1 11.9408 16.1 11.5C16.1 10.235 15.6496 9.15208 14.7488 8.25125C13.8479 7.35042 12.765 6.9 11.5 6.9C10.235 6.9 9.15208 7.35042 8.25125 8.25125C7.35042 9.15208 6.9 10.235 6.9 11.5C6.9 12.765 7.35042 13.8479 8.25125 14.7488C9.15208 15.6496 10.235 16.1 11.5 16.1Z" fill="#D3D3D3"/>
</svg>
