<svg width="40" height="40" viewBox="0 0 40 40" fill="none" xmlns="http://www.w3.org/2000/svg">
    <rect width="39.9378" height="39.9378" rx="10.1969" fill="#7F46E1" fill-opacity="0.12"/>
    <path fill-rule="evenodd" clip-rule="evenodd" d="M25.0658 26.1788L27.8545 28.7345C28.0797 28.9409 28.105 29.3024 27.911 29.542C27.717 29.7816 27.3772 29.8085 27.1521 29.6021L26.0539 28.5957H13.884L12.7857 29.6022C12.5606 29.8085 12.2208 29.7817 12.0268 29.542C11.8328 29.3024 11.8581 28.9409 12.0833 28.7345L14.872 26.1789C13.7733 25.8184 12.9727 24.7281 12.9727 23.4425V15.3501C12.9727 13.7715 14.1798 12.4872 15.6635 12.4872H16.4073L17.0374 11.1464C17.3126 10.5608 17.8659 10.1969 18.4815 10.1969H21.4564C22.0719 10.1969 22.6252 10.5608 22.9004 11.1465L23.5305 12.4872H24.2743C25.758 12.4872 26.9651 13.7715 26.9651 15.3501V23.4425C26.9651 24.7281 26.1645 25.8184 25.0658 26.1788ZM18.4815 11.3421C18.2763 11.3421 18.0919 11.4633 18.0001 11.6585L17.6107 12.4872H22.3272L21.9377 11.6586C21.846 11.4633 21.6615 11.3421 21.4564 11.3421H18.4815ZM15.6636 13.6285H16.7373L16.7395 13.6287L16.743 13.6285H24.2743C24.9759 13.6285 25.5741 14.1111 25.7962 14.7775H14.2285H14.1416C14.3638 14.1111 14.962 13.6285 15.6636 13.6285ZM24.3159 19.4999L25.6372 15.9208H14.3006L15.6232 19.5031C15.8686 20.1558 16.4569 20.5796 17.121 20.5796H22.8168C23.4809 20.5796 24.0692 20.1558 24.3159 19.4999ZM14.0491 23.4425V18.3725L14.6226 19.9251C15.0336 21.0184 16.0143 21.7248 17.121 21.7248H22.8168C23.9236 21.7248 24.9042 21.0184 25.3164 19.9219L25.8888 18.3724V23.4425C25.8888 24.3897 25.1645 25.1603 24.2743 25.1603H21.5834V24.5877C21.5834 23.6405 20.8591 22.87 19.9689 22.87C19.0787 22.87 18.3544 23.6405 18.3544 24.5877V25.1603H15.6636C14.7733 25.1603 14.0491 24.3897 14.0491 23.4425ZM20.5071 25.1603V24.5877C20.5071 24.272 20.2656 24.0151 19.9689 24.0151C19.6722 24.0151 19.4308 24.272 19.4308 24.5877V25.1603H20.5071ZM15.1335 27.4506L16.3831 26.3054H23.5547L24.8043 27.4506H15.1335ZM16.7399 22.87H15.6636C15.3664 22.87 15.1254 23.1263 15.1254 23.4425C15.1254 23.7588 15.3664 24.0151 15.6636 24.0151H16.7399C17.0371 24.0151 17.2781 23.7588 17.2781 23.4425C17.2781 23.1263 17.0371 22.87 16.7399 22.87ZM24.2743 22.87H23.1979C22.9007 22.87 22.6598 23.1263 22.6598 23.4425C22.6598 23.7588 22.9007 24.0151 23.1979 24.0151H24.2743C24.5715 24.0151 24.8124 23.7588 24.8124 23.4425C24.8124 23.1263 24.5715 22.87 24.2743 22.87Z" fill="#7F46E1"/>
</svg>
