<svg width="39" height="39" viewBox="0 0 39 39" fill="none" xmlns="http://www.w3.org/2000/svg">
    <rect width="39" height="39" rx="19.5" fill="white"/>
    <path d="M28.2072 27.2072L24.1445 23.1372L28.2072 27.2072ZM26.3959 17.698C26.3959 19.7396 25.5849 21.6976 24.1412 23.1412C22.6976 24.5849 20.7396 25.3959 18.698 25.3959C16.6563 25.3959 14.6983 24.5849 13.2547 23.1412C11.811 21.6976 11 19.7396 11 17.698C11 15.6563 11.811 13.6983 13.2547 12.2547C14.6983 10.811 16.6563 10 18.698 10C20.7396 10 22.6976 10.811 24.1412 12.2547C25.5849 13.6983 26.3959 15.6563 26.3959 17.698V17.698Z" stroke="#3998E8" stroke-width="2" stroke-linecap="round"/>
</svg>
