<svg width="29" height="29" viewBox="0 0 29 29" fill="none" xmlns="http://www.w3.org/2000/svg">
    <rect width="29" height="29" rx="14.5" fill="white"/>
    <path d="M20.9745 20.231L17.9536 17.2046L20.9745 20.231ZM19.6277 13.16C19.6277 14.6782 19.0246 16.1341 17.9511 17.2076C16.8777 18.2811 15.4217 18.8842 13.9036 18.8842C12.3854 18.8842 10.9295 18.2811 9.856 17.2076C8.78252 16.1341 8.17944 14.6782 8.17944 13.16C8.17944 11.6419 8.78252 10.186 9.856 9.11247C10.9295 8.03899 12.3854 7.43591 13.9036 7.43591C15.4217 7.43591 16.8777 8.03899 17.9511 9.11247C19.0246 10.186 19.6277 11.6419 19.6277 13.16V13.16Z" stroke="#3998E8" stroke-width="2" stroke-linecap="round"/>
</svg>
