<svg width="40" height="40" viewBox="0 0 40 40" fill="none" xmlns="http://www.w3.org/2000/svg">
    <rect width="40" height="40" rx="10.1969" fill="#44C781" fill-opacity="0.12"/>
    <path fill-rule="evenodd" clip-rule="evenodd" d="M11.2666 11.2007C12.1473 9.78153 13.3548 8.99997 14.6667 8.99997C15.9785 8.99997 17.186 9.78153 18.0668 11.2007C18.8835 12.5167 19.3333 14.2531 19.3333 16.0898C19.3333 17.5647 19.0232 18.9952 18.4364 20.2267L18.2578 20.6015H11.0755L10.8969 20.2267C10.3102 18.9952 10 17.5647 10 16.0898C10 14.2531 10.4498 12.5167 11.2666 11.2007ZM17.9774 16.7343C17.9924 16.5212 18 16.3061 18 16.0898C18 15.8723 17.9924 15.6573 17.9782 15.4453H11.355C11.3409 15.6573 11.3333 15.8723 11.3333 16.0898C11.3333 16.3061 11.3409 16.5212 11.3558 16.7343H17.9774ZM11.5317 14.1562C11.6281 13.6987 11.7571 13.266 11.9138 12.8672H17.4196C17.5763 13.266 17.7052 13.6987 17.8016 14.1562H11.5317ZM16.734 11.5781C16.1612 10.7755 15.4396 10.289 14.6666 10.289C13.8937 10.289 13.1721 10.7755 12.5993 11.5781H16.734ZM11.9422 19.3125C11.7749 18.9033 11.6413 18.4711 11.5421 18.0234H17.7913C17.6921 18.4711 17.5585 18.9033 17.3911 19.3125H11.9422ZM11.3333 25.1133C11.3333 26.8902 12.8286 28.3359 14.6666 28.3359C16.5046 28.3359 18 26.8902 18 25.1133V21.8906H11.3333V25.1133ZM12.6666 23.1797H16.6666V25.1133C16.6666 26.1794 15.7694 27.0468 14.6666 27.0468C13.5638 27.0468 12.6666 26.1794 12.6666 25.1133V23.1797ZM25.3333 31C23.4953 31 22 29.5543 22 27.7773V24.5547H28.6667V27.7773C28.6667 29.5543 27.1713 31 25.3333 31ZM27.3333 25.8437H23.3333V27.7773C23.3333 28.8435 24.2305 29.7109 25.3333 29.7109C26.4361 29.7109 27.3333 28.8435 27.3333 27.7773V25.8437ZM25.3333 11.664C26.6452 11.664 27.8527 12.4456 28.7334 13.8648C29.5501 15.1808 30 16.9171 30 18.7539C30 20.2288 29.6898 21.6593 29.1031 22.8907L28.9245 23.2656H21.7422L21.5636 22.8907C20.9768 21.6593 20.6666 20.2288 20.6666 18.7539C20.6666 16.9171 21.1164 15.1808 21.9332 13.8648C22.8139 12.4456 24.0214 11.664 25.3333 11.664ZM28.6441 19.3984C28.659 19.1853 28.6666 18.9702 28.6666 18.7539C28.6666 18.5364 28.659 18.3214 28.6448 18.1093H22.0217C22.0075 18.3214 21.9999 18.5364 21.9999 18.7539C21.9999 18.9702 22.0075 19.1853 22.0225 19.3984H28.6441ZM22.1984 16.8203C22.2948 16.3628 22.4238 15.93 22.5805 15.5312H28.0862C28.243 15.93 28.3719 16.3628 28.4683 16.8203H22.1984ZM27.4007 14.2421C26.8279 13.4396 26.1063 12.9531 25.3333 12.9531C24.5604 12.9531 23.8388 13.4396 23.2661 14.2421H27.4007ZM22.6089 21.9765C22.4415 21.5674 22.3079 21.1352 22.2087 20.6875H28.4579C28.3587 21.1352 28.2251 21.5674 28.0577 21.9765H22.6089Z" fill="#44C781"/>
</svg>
